# xmcd
#
# Track frame offsets:
#	150
#	29104
#	51765
#	74750
#	97111
#	118886
#	139873
#	160323
#	180290
#	204256
#
# Disc length: 3025 seconds
#
# Revision: 2
# Processed by: cddbd v1.5.2PL0 Copyright (c) Steve Scherf et al.
# Submitted via: EZCDAudioConverter 8.0.2.1
#
DISCID=960bcf0a
DTITLE=Trường Vũ - Những Bài Tình Ca Dang Dở 3
DYEAR=2005
DGENRE=blues
TTITLE0=Túy ca
TTITLE1=Em hãy về đi
TTITLE2=Hồi tưởng
TTITLE3=Phương trời xưa lạ
TTITLE4=Nhật ký đời tôi
TTITLE5=Nàng yêu hoa tím
TTITLE6=Vẫy tay chào
TTITLE7=Đoạn tái bút
TTITLE8=Một thuở đam mê
TTITLE9=Hát nữa đi em
EXTD=
EXTT0=
EXTT1=
EXTT2=
EXTT3=
EXTT4=
EXTT5=
EXTT6=
EXTT7=
EXTT8=
EXTT9=
PLAYORDER=
